<svg xmlns="http://www.w3.org/2000/svg" version="1.1" xmlns:xlink="http://www.w3.org/1999/xlink" xmlns:svgjs="http://svgjs.dev/svgjs" width="1500" height="1500" viewBox="0 0 1500 1500"><rect width="1500" height="1500" fill="#000000"></rect><g transform="matrix(0.6666666666666666,0,0,0.6666666666666666,249.39393939393938,438.5856950067477)"><svg viewBox="0 0 396 247" data-background-color="#ffffff" preserveAspectRatio="xMidYMid meet" height="935" width="1500" xmlns="http://www.w3.org/2000/svg" xmlns:xlink="http://www.w3.org/1999/xlink"><g id="tight-bounds" transform="matrix(1,0,0,1,0.2400000000000091,-0.09999999999999432)"><svg viewBox="0 0 395.52 247.2" height="247.2" width="395.52"><g><svg></svg></g><g><svg viewBox="0 0 395.52 247.2" height="247.2" width="395.52"><g transform="matrix(1,0,0,1,135.4413140888192,47.215199999999996)"><svg viewBox="0 0 124.63737182236157 152.7696" height="152.7696" width="124.63737182236157"><g><svg viewBox="0 0 124.63737182236157 152.7696" height="152.7696" width="124.63737182236157"><g><svg viewBox="0 0 124.63737182236157 152.7696" height="152.7696" width="124.63737182236157"><g><svg viewBox="0 0 124.63737182236157 152.7696" height="152.7696" width="124.63737182236157"><g id="textblocktransform"><svg viewBox="0 0 124.63737182236157 152.7696" height="152.7696" width="124.63737182236157" id="textblock"><g><svg viewBox="0 0 124.63737182236157 152.7696" height="152.7696" width="124.63737182236157"><g transform="matrix(1,0,0,1,0,0)"><svg width="124.63737182236157" viewBox="2.75 -35.11666666666666 28.65 35.11666666666666" height="152.7696" data-palette-color="#ceb700"><path d="M14 0L2.75 0 2.75-1.65Q4.65-1.75 5.35-2.53 6.05-3.3 6.13-4.67 6.2-6.05 6.2-7.8L6.2-7.8 6.2-29.4Q6.2-30.4 6.25-31.33 6.3-32.25 6.35-33L6.35-33Q5.45-32.95 4.55-32.9 3.65-32.85 2.75-32.8L2.75-32.8 2.75-35Q5.55-35.05 8.43-35.1 11.3-35.15 14.2-35.05L14.2-35.05Q19.05-35 22.03-33.93 25-32.85 26.4-30.88 27.8-28.9 27.8-26.1L27.8-26.1Q27.85-24.15 27.08-22.13 26.3-20.1 24.28-18.5 22.25-16.9 18.45-16.1L18.45-16.1Q19.45-15.4 20.2-14.3 20.95-13.2 21.9-11.75L21.9-11.75 25.3-6.4Q26.15-5.05 26.95-3.98 27.75-2.9 28.8-2.27 29.85-1.65 31.4-1.65L31.4-1.65 31.4 0 25.1 0Q23.65-1.3 22.68-2.6 21.7-3.9 20.65-5.55L20.65-5.55 17.3-10.9Q16.65-11.95 15.83-13.33 15-14.7 13.95-15.65L13.95-15.65Q13.15-15.6 12.28-15.6 11.4-15.6 10.55-15.65L10.55-15.65 10.55-5.95Q10.55-4.6 10.53-3.63 10.5-2.65 10.4-2L10.4-2Q11-2.05 11.6-2.08 12.2-2.1 12.8-2.15 13.4-2.2 14-2.2L14-2.2 14 0ZM13.65-17.5L13.65-17.5Q16.4-17.6 18.48-18.4 20.55-19.2 21.75-20.95 22.95-22.7 22.95-25.55L22.95-25.55Q22.95-27.45 22.43-28.88 21.9-30.3 20.8-31.25 19.7-32.2 18-32.68 16.3-33.15 14-33.15L14-33.15Q12.15-33.15 11.43-32.4 10.7-31.65 10.63-30.33 10.55-29 10.55-27.2L10.55-27.2 10.55-17.6Q11.35-17.55 12.08-17.5 12.8-17.45 13.65-17.5Z" opacity="1" transform="matrix(1,0,0,1,0,0)" fill="#ffffff" class="wordmark-text-0" data-fill-palette-color="primary" id="text-0"></path></svg></g></svg></g></svg></g></svg></g></svg></g></svg></g></svg></g><path d="M77.777 41.215L77.777 0 324.977 0 324.977 247.2 77.777 247.2 77.777 205.985 91.554 205.985 91.554 233.423 311.2 233.423 311.2 13.777 91.554 13.777 91.554 41.215Z" fill="#ffffff" stroke="transparent" data-fill-palette-color="tertiary"></path></svg></g><defs></defs></svg><rect width="395.52" height="247.2" fill="none" stroke="none" visibility="hidden"></rect></g></svg></g></svg>