<svg xmlns="http://www.w3.org/2000/svg" version="1.1" xmlns:xlink="http://www.w3.org/1999/xlink" xmlns:svgjs="http://svgjs.dev/svgjs" width="1500" height="1500" viewBox="0 0 1500 1500"><rect width="1500" height="1500" fill="#000000"></rect><g transform="matrix(0.6666666666666666,0,0,0.6666666666666666,249.50795316695525,196.7816464237518)"><svg viewBox="0 0 223 247" data-background-color="#293040" preserveAspectRatio="xMidYMid meet" height="1661" width="1500" xmlns="http://www.w3.org/2000/svg" xmlns:xlink="http://www.w3.org/1999/xlink"><g id="tight-bounds" transform="matrix(1,0,0,1,0.10972644376897733,-0.09999999999999432)"><svg viewBox="0 0 222.78054711246202 247.2" height="247.2" width="222.78054711246202"><g><svg viewBox="0 0 222.78054711246202 247.2" height="247.2" width="222.78054711246202"><g><svg viewBox="0 0 222.78054711246202 247.2" height="247.2" width="222.78054711246202"><g id="textblocktransform"><svg viewBox="0 0 222.78054711246202 247.2" height="247.2" width="222.78054711246202" id="textblock"><g><svg viewBox="0 0 222.78054711246202 247.2" height="247.2" width="222.78054711246202"><g transform="matrix(1,0,0,1,0,0)"><svg width="222.78054711246202" viewBox="1.5 -32.9 29.65 32.9" height="247.2" data-palette-color="#d5b263"><g class="wordmark-text-0" data-fill-palette-color="primary" id="text-0"><path d="M27.75-2.65L31.15-2.35 31.1 0 23.5 0 16.35-13 10.4-12.95 10.4-2.95 15.75-2.35 15.7 0 1.8 0 1.5-1.6 5.75-3.15 5.75-29.9 2.2-30.1 2.25-32.5 16.2-32.9Q21.5-32.9 24.78-30.18 28.05-27.45 28.05-23.25L28.05-23.25Q28.05-20.25 26.2-17.57 24.35-14.9 20.95-13.7L20.95-13.7 27.75-2.65ZM10.4-29.2L10.4-16.25Q12.65-15.9 14.65-15.9L14.65-15.9Q19.25-15.9 21.1-18.07 22.95-20.25 22.95-23.25L22.95-23.25Q22.95-28.05 19.05-29.95L19.05-29.95 10.4-29.2Z" fill="#ffffff" data-fill-palette-color="primary"></path></g></svg></g></svg></g></svg></g></svg></g></svg></g><defs></defs></svg><rect width="222.78054711246202" height="247.2" fill="none" stroke="none" visibility="hidden"></rect></g></svg></g></svg>